<?xml version="1.0" encoding="utf-8"?>
<!-- Generator: Adobe Illustrator 23.0.3, SVG Export Plug-In . SVG Version: 6.00 Build 0)  -->
<svg version="1.1" id="uikit_placeholder" xmlns="http://www.w3.org/2000/svg" xmlns:xlink="http://www.w3.org/1999/xlink" x="0px"
	 y="0px" viewBox="0 0 500 500" style="enable-background:new 0 0 500 500;" xml:space="preserve">
<style type="text/css">
	.st0{fill:#2EB57D;}
	.st1{fill:#36C4EF;}
	.st2{fill:#DF1E5A;}
	.st3{fill:#EBB12E;}
</style>
<path class="st0" d="M363.1,126.5c0,20.6,0,41.2,0,61.8c0,20.8-12.1,38.9-31.2,46.8c-28.8,11.8-61.9-6.1-67.7-36.6
	c-0.6-3.2-0.9-6.5-0.9-9.8c0-41.4,0-82.8,0-124.2c0-24.2,16.2-44.4,39.9-49.5c26.5-5.7,53.6,12.1,58.9,38.7
	c0.7,3.8,1.1,7.6,1.1,11.5C363.1,85.7,363.1,106.1,363.1,126.5z"/>
<path class="st1" d="M125.4,238.8H63.3c-24.6,0.2-45.7-17.6-49.6-41.9c-4.5-26.4,13.8-52.5,40.3-57.1c3.3-0.6,6.7-0.9,10.1-0.9
	c40.9,0,81.9,0,122.8,0c15.1,0,27.8,5.4,38,16.6c7.1,7.7,11.5,17.4,12.6,27.8c2.9,25.1-13.5,48.1-37.6,54.1c-3.8,1-7.8,1.4-11.7,1.4
	C167.2,238.7,146.3,238.7,125.4,238.8z"/>
<path class="st2" d="M237.8,376.7v62.2c0,24.5-17.7,45.5-42,49.4c-27.1,4.4-53.3-14.6-57.3-41.7c-0.4-2.8-0.6-5.5-0.6-8.3
	c0-41.2,0-82.4,0-123.6c0-22.9,14.8-42.6,36.7-48.7c28.5-8,58,11,62.6,40.2c0.4,2.6,0.6,5.2,0.6,7.9V376.7z"/>
<path class="st3" d="M375.5,264.2h62.6c24.5,0.1,45.3,17.8,49.3,42c4.4,27.2-14.4,53-41.6,57.3c-2.8,0.4-5.6,0.6-8.5,0.6H313.8
	c-24.1,0-44.1-15.9-49.5-39.4c-5-21.5,6-44.8,25.7-54.9c7.3-3.8,15.4-5.7,23.5-5.7C334.2,264.3,354.9,264.2,375.5,264.2z"/>
<path class="st1" d="M237.8,86.5c0,8.6,0,17.3,0,25.9c0,1.1-0.2,1.6-1.5,1.6c-16.7,0-33.4,0.3-50.1-0.1
	c-15.3-0.3-27.8-6.9-37.3-18.8c-7.7-9.5-11.3-20.4-10.9-32.6c0.7-23.7,18.3-43.8,41.8-47.7c26.8-4.5,52.7,13.9,57.3,40.7
	c0.5,2.7,0.7,5.5,0.7,8.3C237.7,71.3,237.8,78.9,237.8,86.5z"/>
<path class="st0" d="M415.6,238.8c-8.7,0-17.4,0-26,0c-1.1,0-1.4-0.3-1.4-1.4c0-16.7,0-33.4,0-50.1c0.1-20,14.3-39.2,33.7-45.7
	c29.3-9.9,60.1,8.5,65.4,39.1c4.6,26.2-13.5,52.2-39.7,57.1c-3.2,0.6-6.4,0.9-9.7,0.9C430.5,238.7,423,238.8,415.6,238.8z"/>
<path class="st2" d="M85.5,264.2c8.7,0,17.3,0,26,0c1.2,0,1.4,0.3,1.4,1.4c0,16.7,0,33.4,0,50.1c-0.1,20-14.3,39.1-33.7,45.7
	c-26.1,8.9-54.6-5-63.5-31.2c-0.7-2.1-1.3-4.2-1.7-6.3c-5.6-27.5,13.4-54.8,41.2-59c2.6-0.4,5.2-0.6,7.9-0.6
	C70.6,264.2,78,264.2,85.5,264.2z"/>
<path class="st3" d="M263.2,416.5c0-8.6,0-17.2,0-25.9c0-1.3,0.4-1.6,1.6-1.6c16.6,0,33.1-0.2,49.6,0.1c15.4,0.3,28,6.8,37.6,18.7
	c7.7,9.5,11.3,20.6,10.9,32.9c-0.7,23.6-18.7,43.9-41.9,47.5c-27,4.2-52-13.5-57.1-40.5c-0.5-2.8-0.8-5.6-0.8-8.5
	C263.3,431.8,263.2,424.2,263.2,416.5z"/>
</svg>
