<?xml version="1.0" encoding="utf-8"?>
<!-- Generator: Adobe Illustrator 24.1.1, SVG Export Plug-In . SVG Version: 6.00 Build 0)  -->
<svg version="1.1" id="Layer_1" xmlns="http://www.w3.org/2000/svg" xmlns:xlink="http://www.w3.org/1999/xlink" x="0px" y="0px"
	 viewBox="0 0 1920 1080" style="enable-background:new 0 0 1920 1080;" xml:space="preserve">
<style type="text/css">
	.st0{fill:#1A1A1A;}
</style>
<g>
	<path class="st0" d="M727,444.6l-81-81L173.3,836.3c3.1,1.3,6.1,3.2,8.6,5.8c2.4,2.4,4.2,5.1,5.5,8L646,391.6l81,81l184.3-184.3
		l11.3-21.1l-21.3,20.1l4.2-37.6l-8.7,25.1L727,444.6z"/>
	<path class="st0" d="M274.1,688.8l372.5-372.5l81,81l92.2-92.2c-3.2-1.3-6.3-3.3-8.9-5.9c-2.3-2.3-4.1-5-5.4-7.8l-77.9,77.9l-81-81
		L260.1,674.8c3,1.3,5.9,3.2,8.4,5.7C270.9,682.9,272.8,685.8,274.1,688.8z"/>
	<path class="st0" d="M268.5,718.7c8.1-8.1,10-20,5.6-29.9l-18.9,18.9l-14-14l18.9-18.9c-9.9-4.3-21.8-2.4-29.8,5.7
		c-10.5,10.5-10.5,27.7,0,38.2C240.8,729.2,257.9,729.2,268.5,718.7z"/>
	<path class="st0" d="M255.2,707.7l18.9-18.9c-1.3-3-3.2-5.8-5.6-8.3c-2.5-2.5-5.3-4.4-8.4-5.7l-18.9,18.9L255.2,707.7z"/>
	<path class="st0" d="M153.9,855.7l19.4-19.4c-9.8-4.1-21.6-2.2-29.6,5.8c-10.5,10.5-10.5,27.7,0,38.2c10.5,10.5,27.7,10.5,38.2,0
		c8.2-8.2,10-20.2,5.5-30.2l-19.6,19.6L153.9,855.7z"/>
	<path class="st0" d="M173.3,836.3l-19.4,19.4l14,14l19.6-19.6c-1.3-2.9-3.1-5.6-5.5-8C179.4,839.6,176.5,837.6,173.3,836.3z"/>
	<path class="st0" d="M837.4,287.5l-17.6,17.6c9.8,4,21.4,2,29.3-5.9c10.5-10.5,10.5-27.7,0-38.2c-10.5-10.5-27.7-10.5-38.2,0
		c-8.2,8.2-10,20.4-5.4,30.4l17.9-17.9L837.4,287.5z"/>
	<path class="st0" d="M819.8,305.1l17.6-17.6l-14-14l-17.9,17.9c1.3,2.8,3.1,5.5,5.4,7.8C813.5,301.8,816.6,303.8,819.8,305.1z"/>
</g>
<g>
	<path class="st0" d="M1256.1,373.4c2.7-2.3,5.7-3.9,8.8-4.9l-129.5-153.3l4.3-28.8l-7,10.4l-21.8-26.3l7.1,22.9l5.5,17.1l-13.7-3.6
		l-5.6-25.6l1.5,24.6l-64.6-20.4l79.5,43.2l129,152.7C1251.3,378.4,1253.4,375.7,1256.1,373.4z"/>
	<path class="st0" d="M1241.7,514.6l70.7-59.7l155.7,184.3l-75.5,35.9l270.4,139.3l-92.1-290l-48,68.5l-31.2-37
		c-1.5,2.5-3.4,4.9-5.8,6.9c-3,2.5-6.3,4.2-9.8,5.3l48.3,57.2l39.8-56.7l65.6,206.5l-192.6-99.2l62.6-29.7l-185-219.1l-98.1,82.9
		l135.9,251.4l-200-236.8l101.2-85.5l-48.5-57.4c-1.6,2.9-3.7,5.6-6.3,7.8c-2.7,2.3-5.7,3.9-8.8,4.9l35.7,42.3l-101.2,85.5
		L1461,920.3L1241.7,514.6z"/>
	<path class="st0" d="M1245.8,264c-1.5,2.7-3.5,5.2-6,7.3c-2.8,2.4-6,4.1-9.4,5.1l89.9,106.4l142.4-120.3l200,236.7l-225.1-176
		l-98.1,82.9l44.8,53.1c1.6-2.9,3.7-5.6,6.3-7.8c2.7-2.3,5.7-3.9,8.8-4.9l-32.1-38l70.7-59.7l363.3,284L1465,234.7L1322.6,355
		L1245.8,264z"/>
	<path class="st0" d="M1231.2,246.8l14.5,17.2c5.4-9.6,4.7-21.9-2.8-30.8c-9.6-11.4-26.7-12.8-38.1-3.2
		c-11.4,9.6-12.8,26.7-3.2,38.1c7.2,8.6,18.6,11.5,28.7,8.4l-14.3-16.9L1231.2,246.8z"/>
	<path class="st0" d="M1245.8,264l-14.5-17.2l-15.1,12.8l14.3,16.9c3.3-1,6.5-2.8,9.4-5.1C1242.2,269.2,1244.2,266.7,1245.8,264z"/>
	<path class="st0" d="M1273.5,409.4l-23.8-28.1c-5.1,9.5-4.2,21.5,3.1,30.2c9.6,11.4,26.7,12.8,38.1,3.2
		c11.4-9.6,12.8-26.7,3.2-38.1c-7.4-8.7-19.1-11.6-29.3-8.1l23.8,28.1L1273.5,409.4z"/>
	<path class="st0" d="M1249.7,381.3l23.8,28.1l15.1-12.8l-23.8-28.1c-3.1,1.1-6.1,2.7-8.8,4.9
		C1253.4,375.7,1251.3,378.4,1249.7,381.3z"/>
	<path class="st0" d="M1483.6,546.2l8.2,9.7c5.7-9.6,5-22.1-2.6-31.2c-9.6-11.4-26.7-12.8-38.1-3.2c-11.4,9.6-12.8,26.7-3.2,38.1
		c7.1,8.4,18.3,11.4,28.3,8.5l-7.7-9.1L1483.6,546.2z"/>
	<path class="st0" d="M1491.8,555.9l-8.2-9.7l-15.1,12.8l7.7,9.1c3.5-1,6.8-2.8,9.8-5.3C1488.4,560.8,1490.3,558.4,1491.8,555.9z"/>
	<path class="st0" d="M1400.9,478.9l-16.6-19.7c-5.1,9.5-4.2,21.5,3.1,30.2c9.6,11.4,26.7,12.8,38.1,3.2
		c11.4-9.6,12.8-26.7,3.2-38.1c-7.4-8.7-19.1-11.6-29.3-8.1l16.6,19.7L1400.9,478.9z"/>
	<path class="st0" d="M1384.2,459.3l16.6,19.7l15.1-12.8l-16.6-19.7c-3.1,1.1-6.1,2.7-8.8,4.9
		C1387.9,453.7,1385.8,456.4,1384.2,459.3z"/>
	<path class="st0" d="M1192,366l13.2,15.7c5.1-9.5,4.2-21.5-3.1-30.2c-9.6-11.4-26.7-12.8-38.1-3.2s-12.8,26.7-3.2,38.1
		c7.4,8.7,19.1,11.6,29.3,8.1l-13.2-15.7L1192,366z"/>
	<path class="st0" d="M1205.3,381.7L1192,366l-15.1,12.8l13.2,15.7c3.1-1.1,6.1-2.7,8.8-4.9C1201.6,387.3,1203.7,384.6,1205.3,381.7
		z"/>
</g>
<polygon class="st0" points="972.6,244.7 989.6,237.8 971.3,238.7 933,247.3 916.3,254.1 934.3,253.2 "/>
<polygon class="st0" points="992.1,214 1002.2,209.9 991.3,210.5 968.4,215.6 958.4,219.6 969.2,219.1 "/>
<polygon class="st0" points="1058.3,159.6 1071.6,165.1 1060.9,155.5 1034.6,139.2 1021.5,133.9 1032.1,143.3 "/>
<polygon class="st0" points="1026.7,241.8 1032.9,239.3 1026.2,239.6 1012,242.8 1005.9,245.3 1012.5,245 "/>
<polygon class="st0" points="985.7,138.8 991.8,141.6 986.9,137 974.9,128.9 968.8,126.2 973.6,130.8 "/>
</svg>
