<?xml version="1.0" encoding="utf-8"?>
<!-- Generator: Adobe Illustrator 23.0.3, SVG Export Plug-In . SVG Version: 6.00 Build 0)  -->
<svg version="1.1" id="uikit_placeholder" xmlns="http://www.w3.org/2000/svg" xmlns:xlink="http://www.w3.org/1999/xlink" x="0px"
	 y="0px" viewBox="0 0 500 500" style="enable-background:new 0 0 500 500;" xml:space="preserve">
<style type="text/css">
	.st0{fill:#8C1E40;}
	.st1{fill:#FCC328;}
	.st2{fill:#F9BF28;}
</style>
<path class="st0" d="M464,323.1c-0.2,4.8-0.8,9.6,1.8,14c1,3.2,3.2,5.6,5.4,8c2.3,2.5,4.5,5,6.8,7.4c1.7,1.7,0.7,2.3-1,2.7
	c-4.4-0.3-8.8-0.3-13.1,0c-4.4-0.3-8.8-0.3-13.2,0c-4.4-0.3-8.7-0.3-13.1,0c-4.4-0.3-8.8-0.3-13.1,0c-4.4-0.7-8.9,0.4-13.2-1
	c-2.5-1.1-4.5-2.9-6.3-4.9c-1.8-3-2.2-6.6-3.8-9.9l-3.7,4.8l-6.8,5.2l-5.7,2.8c-4.3,1.4-8.7,2.5-13.1,3.3l-13.2,0.7l-13.1-0.2
	l-13.2-2.3c-10-2.6-18.8-7.3-25.6-15.3l-4.3-6.5c-2.8,4.5-6.5,7.9-10.3,11c-4,2.5-8.2,4.6-12.5,6.5l-13,3.5l-13.2,1.6l-7.8,0.5
	c-0.2-0.1-0.4-0.1-0.6,0.1c-1.6,0-3.2-0.4-4.7,0.3l-13,0.1c-4.4-0.4-8.8-0.4-13.2,0c-4.3-0.3-8.7-0.3-13.1,0
	c-4.4-0.4-8.8-0.4-13.2,0c-4.4-0.3-8.7-0.3-13.1,0c-4.4-0.4-8.8-0.4-13.2,0c-3.2-0.2-6.3-0.4-9.5,0.1l-1-0.8
	c-1.1-6.2-2.7-12.3-4.6-18.3c-0.5-4-1.8-7.9-2.8-11.8l-0.3-1c0-0.1,0-0.3-0.1-0.3c0.2-3.4-1.3-5-4.8-4.4c-1,0.2-2.1,0.2-3.2,0.3
	h-13.1c-4.4-0.5-8.8-0.5-13.2,0c-4.4-0.3-8.8-0.2-13.1,0c-2.4-0.1-4.8,0-7.2-0.3c-3.4-0.4-5.1,1-5.1,4.4c-0.4,1.6-1.1,3.2-1,4.9
	c-0.1,0.3-0.2,0.6-0.4,1c-0.1,0.5-0.1,0.9-0.2,1.3c-1.9,6.3-3.5,12.6-4.6,19.1c-0.4,4.9-3.3,6.5-7.8,5.8c-4.4-0.4-8.8-0.4-13.2,0
	c-4.4-0.3-8.7-0.3-13.1,0c-4.4-0.4-8.8-0.4-13.2,0c-4.4-0.3-8.7-0.3-13.1,0l-0.2-0.1c0,0-0.1,0.2-0.2,0.2l-1-0.5
	c0.3-1.4,0.6-2.9,0.9-4.3c0.6-0.8,0.6-1.7,0.5-2.6c1.5-3.4,2-7,2.8-10.6c1.2-4.7,2.4-9.4,3.6-14.2l3.2-13.2
	c1.1-4.4,2.2-8.8,3.3-13.2c0.4-1.3,0.9-2.5,0.8-3.9c2.3-7.3,4.1-14.9,5.8-22.3l3.3-13.2c1.2-3.8,2.2-7.7,2.9-11.6
	c0.7-0.7,0.6-1.7,0.6-2.6c1.5-3.9,2.3-8,3.1-12.1l3.3-13.2l3.3-13.1c1.4-4.3,2.5-8.7,3.3-13.2c1.4-4.3,1.4-8.9,0.1-13.2
	c0-1.9-0.9-3.6-1.8-5.1c-2.5-4.4-6.3-7.7-9.6-11.4c-0.8-0.9-1.9-1.5-1.7-3l13.1-0.3h92.1l12.4,0.2c3.6,1.3,6.8,3.1,8.9,6.5
	c2.4,8.8,4.7,17.6,7.3,27c2.1-5.5,5-9.8,8.3-13.8l2.6-2.6c4.8-4.1,10.2-7,15.8-9.9l10.5-3.3l13.2-2.5l9.2-0.8l0.6-0.1
	c1.1,0.2,2.2,0.1,3.3-0.3l13.2-0.2h105.2c3.3-0.5,4.4,1,3.9,4.1c-0.1,0.8,0.1,1.7,0.1,2.6c0,4.4,0,8.8,0,13.2V231
	c-0.3,4.4-0.2,8.8,0.1,13.1c0,4.4,0,8.8,0,13.2v26.3c0,4.4,0,8.8,0,13.1c0.1,6.3,3.2,10.7,9.1,13c4.4,1.5,8.7,1.7,13.2,0.3
	c7.8-1.3,12.9-6.9,13.6-14.5l0.1-11.8c0-4.4,0-8.8,0-13.2c0-4.4,0-8.8,0-13.1c0-4.4,0-8.8,0-13.2c0-4.4,0-8.8,0-13.1
	c0-4.4,0-8.8,0-13.2v-13.1c0-13.2,0-26.3,0-39.4c0-1.8,0-3.5,0-5.2c0.1-1.7,1.4-1.3,2.4-1.3c3.4-0.1,6.9-0.1,10.3-0.1h39.4l13.1,0.3
	l0.1,6.4c0,4.4,0,8.8,0,13.2v13.1c0,4.4,0,8.8,0,13.2c0,4.4,0,8.8,0,13.1c0,4.4,0,8.8,0,13.2s0,8.8,0,13.1c0,4.4,0,8.8,0,13.2
	c0,4.4,0,8.8,0,13.1c0,4.4,0,8.8,0,13.2c0,4.4,0,8.8,0,13.1c0,4.4,0,8.8,0,13.2S464,318.7,464,323.1z M103.6,244.1
	c-1.4,4.3-2.5,8.7-3.3,13.2c-1.4,4.3-2.5,8.7-3.3,13.2c-1,3.7-2,7.3-3.1,11c-0.4,1.5,0.3,1.7,1.5,1.6c4.5-0.1,9-0.1,13.4-0.2h13.1
	c3.1,0.1,6.3,0,9.4,0.2c1.8,0.1,2-0.7,1.6-2.2c-1-3.7-2-7.5-3-11.3c-1-4.2-2-8.3-3-12.5c-2.2-8.8-4.4-17.5-6.6-26.3l-3.1-12.4
	c-1.1-4.7-2.3-9.4-3.4-14.2h-0.8c-1,4.5-2,9-3,13.5c-1,2.5-1.6,5.2-1.9,7.9C106.3,231.8,104.8,237.9,103.6,244.1z M198.2,301.2
	l0.3,0.2c-0.6,0.9-1.1,1.9-1.8,2.7c-6.4,8.5-12.7,17-19.1,25.4c-0.7,0.9-2.3,2-1.2,3c1.3,1.3,2.5-0.2,3.6-1.1c2.7-2.3,5.4-4.8,8.2-7
	c6.5-5.4,12.6-11.4,19.5-16.5l0-0.1c0.4,1.3-0.5,2.3-1.1,3.3c-4.6,9.2-9.1,18.4-13.7,27.7c-0.4,0.7-0.7,1.4-1,2.1
	c-0.2,0.6-0.4,1.4,0.4,1.7c0.5,0.1,1.1,0.1,1.5-0.2c0.7-0.6,1.3-1.2,1.8-1.9c6.8-8.3,13.6-16.6,20.2-25c1.8-2.3,3.2-2.5,5.7-1.4
	c11.7,4.6,23.4,4.2,34.6-1.6c9.3-4.8,10.9-15.8,3.7-23.6c-3.3-3.6-7.5-6-11.9-7.9c-11.9-5.3-24.6-8.5-36.5-13.7
	c-12.4-5.4-23.6-12.1-30.8-24c-0.6-1.1-1.5-1.4-2.7-1.5c-11.9-0.7-23.8-1.4-35.7-2.1c-1-0.1-2.6-0.4-2.9,0.9
	c-0.3,1.7,1.4,1.6,2.5,1.9c10.2,2.6,20.3,5.2,30.5,7.9c2.2,0.6,4.6,0.7,6.8,2.4c-6.2,0.5-12,1-17.7,1.6c-7.1,0.6-14.2,1.3-21.2,2
	c-1.1,0.1-2.6,0.3-2.6,1.5c-0.1,1.5,1.6,1.2,2.5,1.3c5.9,0.6,11.8,1.1,17.6,1.6c7.1,0.6,14.1,1.3,21.2,2c-0.7,0.6-1.5,1.1-2.5,1.3
	c-11.5,3-23.1,5.9-34.6,8.9c-1,0.3-2.9,0-2.7,1.7c0.2,1.5,1.8,1.2,3,1.1c4.8-0.3,9.6-0.7,14.4-1c8.1-0.5,16.2-1,24.7-1.5
	c-1,1.3-2.2,1.5-3.3,2c-10.6,4.7-21.3,9.3-31.9,13.9c-0.9,0.4-2.5,0.6-2,2.1c0.5,1.2,1.8,0.8,2.9,0.5c6.7-1.5,13.4-3,20.2-4.5
	c5.8-1.3,11.7-2.6,17.6-3.9c-0.2,1.2-0.9,1.3-1.4,1.7c-9.7,6.3-19.5,12.6-29.2,19c-1,0.6-3,1.1-2.1,2.7c0.8,1.4,2.4,0.3,3.6-0.2
	c5.8-2.3,11.6-4.6,17.4-6.9c5.9-2.4,11.8-4.7,17.8-7.1c-3.8,4.5-7.9,8.3-12.1,12.2c-4.8,4.5-9.7,8.9-14.4,13.4
	c-0.7,0.7-2.1,1.5-1.1,2.6c0.8,1,2,0.2,3-0.4c1.2-0.7,2.4-1.5,3.7-2.2C179.2,312.5,188.4,306.4,198.2,301.2z M295.7,214L295.7,214
	c0.4-0.9,0.9-1.8,1.4-2.6c6.4-8.6,12.9-17.2,19.3-25.7c0.7-0.9,2.3-2,1.2-3c-1.3-1.3-2.5,0.2-3.6,1.1c-2.8,2.4-5.6,4.9-8.5,7.3
	l-18.8,16.2c0.1-1.6,0.5-3.1,1.2-4.4c4.4-8.8,8.8-17.6,13.2-26.4c0.3-0.7,0.7-1.4,1-2.1c0.2-0.6,0.6-1.3-0.1-1.7
	c-0.6-0.3-1.3-0.2-1.9,0.2c-0.5,0.4-1,0.9-1.3,1.4c-7,8.7-14.1,17.3-21.1,26c-1.6,2-2.8,2.4-5.4,1.5c-12.3-4.3-24.9-6-37.6-1.9
	c-5.8,1.9-9.9,5.7-10.6,12.1c-0.7,6,2.3,10.3,6.9,13.7c4.8,3.6,10.2,5.9,15.7,8.1c12.1,4.8,24.5,8.8,35.9,15.2
	c13.4,7.4,23.9,17.4,27.7,32.9c0.4,1.6,1.2,2.1,2.6,2.4c11.2,2.5,22.4,4.9,33.6,7.4c1.2,0.3,2.9,1.2,3.4-0.5
	c0.4-1.5-1.4-1.7-2.4-2.1c-10.7-4.7-21.5-9.4-32.2-14.1c-0.8-0.4-2-0.3-2.3-1.6c0.8,0,1.5,0,2.3,0l36.7,2.5c1.2,0.1,2.8,0.3,2.9-1.2
	c0.2-1.4-1.5-1.3-2.5-1.5c-10.9-2.8-21.8-5.6-32.7-8.5c-1.6-0.4-3.4-0.4-4.9-1.8l8.8-0.8c10.1-1,20.3-1.9,30.4-2.9
	c1-0.1,2.6,0.1,2.6-1.4c0-1.5-1.6-1.3-2.6-1.4c-5.6-0.5-11.1-1-16.7-1.5c-7.4-0.7-14.8-1.4-22.4-2.1c0.8-1,1.6-1,2.4-1.2
	c11.8-3,23.5-6.1,35.2-9.1c1-0.3,2.6-0.3,2.4-1.6c-0.2-1.2-1.6-1.1-2.7-1.1c-5.1,0.3-10.3,0.7-15.4,1c-7.9,0.5-15.8,1-23.8,1.4
	c0.6-1.3,1.7-1.3,2.6-1.7c10.7-4.7,21.5-9.4,32.2-14.1c0.9-0.4,2.6-0.6,2.2-1.9c-0.4-1.5-1.8-1-3.1-0.8c-6.8,1.6-13.6,3.1-20.5,4.6
	c-5.7,1.3-11.4,2.5-17,3.8c0.2-0.7,0.7-1.3,1.3-1.7c9.3-6,18.5-12.1,27.8-18.1c1-0.7,2-1.3,3-2c0.5-0.3,0.7-0.9,0.6-1.4
	c-0.2-0.5-0.8-0.8-1.3-0.7c-0.9,0.1-1.7,0.4-2.5,0.7c-5.7,2.3-11.4,4.5-17.1,6.8l-17.9,7.2c3.8-4.4,7.9-8.3,12-12.1
	c4.9-4.5,9.8-9.1,14.7-13.7c0.6-0.6,2-1.2,1-2.3c-0.7-0.9-1.8-0.4-2.7,0.1c-0.3,0.2-0.6,0.3-0.9,0.5c-5.3,3.2-10.6,6.6-16,9.7
	C306.3,207.9,301.4,211.6,295.7,214z M311.4,285.4c0.3,3.6,0.5,6.6,0.7,9.6c0.1,1,0.8,1.3,1.5,1.5c8.6,3.5,17.3,6.9,25.9,10.4
	c0.9,0.4,2.1,0.7,2.7-0.3c0.7-1.2-0.6-1.7-1.4-2.2c-5.2-3.4-10.4-6.8-15.7-10.2C320.7,291.4,316.3,288.6,311.4,285.4z M178.6,240.3
	c-1.1-3.3-2.1-6.1-2.9-8.9c-0.2-1.1-1.1-1.9-2.2-2c-9.1-2-18.1-4.1-27.2-6.1c-0.9-0.2-1.9-0.2-2.3,0.7c-0.5,1.2,0.6,1.5,1.4,1.8
	C156.3,230.6,167.2,235.4,178.6,240.3z M311.8,301.3c-0.3,2.7-0.6,4.8-0.9,6.8c-0.1,1-0.1,1.9,1,2.5c5.6,3.4,11.2,6.8,16.8,10.2
	c0.8,0.5,1.8,0.7,2.4,0c0.8-0.9-0.2-1.6-0.8-2.1C324.4,313,318.3,307.3,311.8,301.3z M174,224.1c0-2.7,0-4.7,0-6.8
	c0-0.7-0.1-1.4-0.8-1.6c-6.5-2.6-13-5.1-19.5-7.7c-0.6-0.3-1.4,0-1.7,0.5c-0.5,1,0.3,1.4,1,1.8C159.7,214.8,166.6,219.3,174,224.1z
	 M309.1,319.7l-0.9,0.3c0.2,2-2.5,3.7-1,5.5c2.5,2.7,5.5,4.9,8.4,7.3c0.6,0.5,1.5,0.5,2.1-0.1c0.5-0.6,0.1-1.2-0.3-1.8
	C314.7,327.2,311.9,323.4,309.1,319.7z M173.9,206.1l0.9-0.3c-0.7-1.9,1.8-4-0.1-5.5c-3-2.3-6.4-4.1-9.8-6c-0.6-0.4-1.6-0.5-2,0.4
	c-0.4,0.7,0.1,1.3,0.6,1.7C167,199.6,170.4,202.8,173.9,206.1z"/>
<path class="st1" d="M295.7,214c5.7-2.4,10.6-6.1,15.9-9.1c5.4-3.1,10.7-6.5,16-9.7c0.3-0.2,0.6-0.3,0.9-0.5c0.9-0.5,2-1,2.7-0.1
	c1,1.1-0.4,1.7-1,2.3c-4.9,4.6-9.8,9.1-14.7,13.7c-4.1,3.8-8.2,7.7-12,12.1l17.9-7.2c5.7-2.3,11.4-4.6,17.1-6.8
	c0.8-0.3,1.6-0.6,2.5-0.7c0.6-0.2,1.1,0.1,1.3,0.7c0.2,0.5-0.1,1.1-0.6,1.4c-1,0.7-2,1.4-3,2c-9.3,6-18.5,12-27.8,18.1
	c-0.7,0.4-1.1,1-1.3,1.7c5.7-1.2,11.4-2.5,17-3.8c6.8-1.5,13.7-3,20.5-4.6c1.2-0.3,2.7-0.7,3.1,0.8c0.4,1.4-1.3,1.5-2.2,1.9
	c-10.7,4.7-21.5,9.4-32.2,14.1c-0.8,0.4-2,0.4-2.6,1.7c8-0.5,15.9-1,23.8-1.4c5.1-0.3,10.3-0.7,15.4-1c1.1-0.1,2.6-0.2,2.7,1.1
	c0.2,1.4-1.4,1.4-2.4,1.6c-11.7,3-23.5,6.1-35.2,9.1c-0.7,0.2-1.5,0.2-2.4,1.2c7.7,0.7,15,1.4,22.4,2.1c5.6,0.5,11.1,1,16.7,1.5
	c1,0.1,2.6-0.1,2.6,1.4s-1.6,1.3-2.6,1.4c-10.1,1-20.3,1.9-30.4,2.9l-8.8,0.8c1.5,1.4,3.3,1.4,4.9,1.8c10.9,2.9,21.8,5.6,32.7,8.5
	c1,0.3,2.6,0.1,2.5,1.5c-0.2,1.5-1.8,1.3-2.9,1.2l-36.7-2.4c-0.8-0.1-1.5,0-2.3,0c0.3,1.3,1.5,1.2,2.3,1.6
	c10.7,4.7,21.5,9.4,32.2,14.1c1,0.4,2.9,0.6,2.4,2.1c-0.5,1.7-2.2,0.8-3.4,0.5c-11.2-2.5-22.4-5-33.6-7.4c-1.4-0.3-2.2-0.8-2.6-2.4
	c-3.8-15.5-14.3-25.4-27.7-32.9c-11.4-6.3-23.8-10.4-35.9-15.2c-5.5-2.2-10.9-4.5-15.7-8.1c-4.6-3.4-7.6-7.7-6.9-13.7
	c0.7-6.4,4.8-10.1,10.6-12.1c12.8-4.2,25.3-2.5,37.6,1.9c2.6,0.9,3.8,0.5,5.4-1.5c6.9-8.8,14-17.4,21.1-26c0.4-0.5,0.8-1,1.3-1.4
	c0.5-0.4,1.3-0.5,1.9-0.2c0.8,0.5,0.4,1.2,0.1,1.7c-0.3,0.7-0.6,1.4-1,2.1c-4.4,8.8-8.8,17.6-13.2,26.4c-0.8,1.4-1.2,2.9-1.2,4.4
	l18.8-16.2c2.8-2.4,5.6-4.9,8.5-7.3c1-0.9,2.3-2.4,3.6-1.1c1,1-0.6,2.1-1.2,3c-6.4,8.6-12.9,17.2-19.3,25.7
	C296.6,212.3,296.2,213.1,295.7,214c-0.3,0.1-0.8,0.1-0.3,0.5L295.7,214z"/>
<path class="st1" d="M207.6,308c-6.9,5-12.9,11-19.5,16.5c-2.8,2.3-5.5,4.7-8.2,7c-1,0.9-2.3,2.4-3.6,1.1c-1-1,0.6-2.1,1.2-3
	c6.3-8.5,12.7-17,19.1-25.4c0.6-0.9,1.2-1.8,1.8-2.7c0.1-0.1,0.4-0.4,0.4-0.4c-0.3-0.4-0.5-0.2-0.7,0.1
	c-9.8,5.2-18.9,11.4-28.5,16.9c-1.2,0.7-2.4,1.5-3.7,2.2c-1,0.6-2.1,1.4-3,0.4c-1-1.2,0.4-2,1.1-2.6c4.8-4.5,9.6-8.9,14.4-13.4
	c4.1-3.8,8.3-7.7,12.1-12.2c-5.9,2.4-11.8,4.7-17.8,7.1c-5.8,2.3-11.6,4.7-17.4,6.9c-1.2,0.5-2.8,1.6-3.6,0.2
	c-0.9-1.6,1.1-2.1,2.1-2.7c9.7-6.4,19.4-12.7,29.2-19c0.5-0.3,1.2-0.5,1.4-1.7c-6,1.3-11.8,2.6-17.6,3.9c-6.7,1.5-13.4,3-20.2,4.5
	c-1.1,0.3-2.4,0.6-2.9-0.5c-0.6-1.5,1.1-1.7,2-2.1c10.6-4.7,21.2-9.3,31.9-13.9c1.1-0.5,2.3-0.7,3.3-2c-8.4,0.5-16.5,1-24.7,1.5
	c-4.8,0.3-9.6,0.7-14.4,1c-1.2,0.1-2.9,0.3-3-1.1c-0.2-1.6,1.7-1.4,2.7-1.7c11.5-3,23.1-6,34.6-8.9c0.9-0.2,1.8-0.6,2.5-1.3
	c-7.1-0.7-14.1-1.4-21.2-2c-5.9-0.5-11.8-1-17.6-1.6c-0.9-0.1-2.6,0.2-2.5-1.3c0.1-1.2,1.6-1.4,2.6-1.5c7.1-0.7,14.1-1.4,21.2-2
	c5.8-0.5,11.5-1,17.7-1.6c-2.2-1.7-4.6-1.8-6.8-2.4c-10.1-2.7-20.3-5.2-30.5-7.9c-1.1-0.3-2.8-0.2-2.5-1.9c0.3-1.3,1.8-0.9,2.9-0.9
	c11.9,0.7,23.8,1.4,35.7,2.1c1.2,0.1,2.1,0.4,2.7,1.5c7.2,11.9,18.4,18.7,30.8,24c12,5.2,24.6,8.4,36.5,13.7c4.4,2,8.6,4.3,11.9,7.9
	c7.2,7.7,5.6,18.7-3.7,23.6c-11.2,5.8-22.9,6.2-34.6,1.6c-2.6-1-3.9-0.8-5.7,1.4c-6.6,8.5-13.5,16.7-20.2,25
	c-0.5,0.7-1.1,1.3-1.8,1.9c-0.4,0.3-1,0.4-1.5,0.2c-0.8-0.3-0.6-1.1-0.4-1.7c0.3-0.7,0.6-1.4,1-2.1c4.6-9.2,9.1-18.4,13.7-27.7
	c0.5-1,1.4-2,1.1-3.3l0.4-0.2c-0.1,0-0.2,0-0.2,0C207.7,307.7,207.6,307.8,207.6,308z"/>
<path class="st2" d="M311.4,285.4c4.9,3.2,9.3,6,13.7,8.8c5.2,3.4,10.5,6.8,15.7,10.2c0.8,0.5,2.1,1,1.4,2.2c-0.6,1-1.7,0.6-2.7,0.3
	c-8.6-3.5-17.3-6.9-25.9-10.4c-0.7-0.3-1.4-0.6-1.5-1.5C311.9,292.1,311.6,289.1,311.4,285.4z"/>
<path class="st2" d="M178.6,240.3c-11.4-5-22.3-9.7-33.2-14.5c-0.8-0.3-1.9-0.6-1.4-1.8c0.4-1,1.4-1,2.3-0.7
	c9.1,2,18.1,4.1,27.2,6.1c1.1,0.1,2,1,2.2,2C176.6,234.2,177.5,237,178.6,240.3z"/>
<path class="st2" d="M311.8,301.3c6.5,6,12.6,11.7,18.6,17.3c0.6,0.6,1.6,1.2,0.8,2.1c-0.6,0.7-1.6,0.5-2.4,0
	c-5.6-3.4-11.2-6.8-16.8-10.2c-1-0.6-1.1-1.5-1-2.5C311.2,306,311.5,304,311.8,301.3z"/>
<path class="st2" d="M174,224.1c-7.4-4.8-14.2-9.3-21.1-13.7c-0.6-0.4-1.4-0.8-1-1.8c0.4-0.6,1.1-0.8,1.7-0.5
	c6.5,2.5,13,5.1,19.5,7.7c0.7,0.3,0.8,1,0.8,1.6C174,219.3,174,221.4,174,224.1z"/>
<path class="st2" d="M309.1,319.7c2.8,3.7,5.6,7.4,8.4,11.2c0.4,0.5,0.8,1.2,0.3,1.8c-0.6,0.6-1.5,0.6-2.1,0.1
	c-2.9-2.3-5.9-4.6-8.4-7.3c-1.5-1.7,1.1-3.5,1-5.5L309.1,319.7z"/>
<path class="st2" d="M173.9,206.1c-3.5-3.2-7-6.5-10.4-9.7c-0.5-0.5-0.9-1.1-0.6-1.7c0.5-0.8,1.4-0.7,2-0.4c3.3,1.9,6.8,3.6,9.8,6
	c1.9,1.5-0.6,3.6,0.1,5.5L173.9,206.1z"/>
</svg>
