<?xml version="1.0" encoding="utf-8"?>
<!-- Generator: Adobe Illustrator 23.0.3, SVG Export Plug-In . SVG Version: 6.00 Build 0)  -->
<svg version="1.1" id="uikit_placeholder" xmlns="http://www.w3.org/2000/svg" xmlns:xlink="http://www.w3.org/1999/xlink" x="0px"
	 y="0px" viewBox="0 0 500 500" style="enable-background:new 0 0 500 500;" xml:space="preserve">
<style type="text/css">
	.st0{fill:#8C1D40;}
</style>
<g>
	<g>
		<path class="st0" d="M37.3,286c-3.8,0-7.2-0.6-10.3-1.9c-3.1-1.2-5.8-3.1-8-5.4c-2.2-2.4-3.9-5.3-5.2-8.8c-1.2-3.5-1.8-7.5-1.8-12
			s0.7-8.5,2.1-12s3.2-6.4,5.6-8.8c2.3-2.4,5-4.2,8.2-5.4c3.1-1.2,6.4-1.9,9.9-1.9c2.2,0,4.2,0.2,6,0.5s3.3,0.7,4.7,1.1
			c1.3,0.4,2.4,0.8,3.2,1.2s1.4,0.7,1.7,0.9l-2.2,6.2c-0.5-0.3-1.1-0.6-2-1s-1.9-0.7-3-1.1c-1.1-0.4-2.3-0.7-3.7-0.9
			c-1.3-0.2-2.7-0.3-4-0.3c-2.8,0-5.4,0.5-7.7,1.5s-4.2,2.4-5.8,4.3c-1.6,1.9-2.8,4.1-3.7,6.8c-0.9,2.7-1.3,5.7-1.3,9
			c0,3.2,0.4,6.1,1.1,8.8c0.8,2.6,1.9,4.9,3.4,6.8s3.4,3.4,5.6,4.4c2.3,1,4.9,1.6,7.9,1.6c3.5,0,6.3-0.4,8.6-1.1
			c2.3-0.7,4-1.4,5.1-1.9l1.9,6.2c-0.4,0.3-1,0.6-1.9,1s-2.1,0.8-3.5,1.1c-1.4,0.4-3,0.7-4.9,0.9C41.5,285.9,39.5,286,37.3,286z"/>
		<path class="st0" d="M58.6,257.9c0-4.6,0.7-8.7,2.1-12.2c1.4-3.5,3.2-6.5,5.6-8.8c2.4-2.4,5.1-4.1,8.2-5.3s6.5-1.8,10-1.8
			s6.7,0.6,9.8,1.8c3.1,1.2,5.8,3,8.1,5.3c2.3,2.4,4.2,5.3,5.6,8.8s2.1,7.6,2.1,12.2c0,4.6-0.7,8.7-2.1,12.2s-3.2,6.5-5.6,8.8
			c-2.3,2.4-5,4.1-8.1,5.3c-3.1,1.2-6.4,1.8-9.8,1.8c-3.5,0-6.8-0.6-10-1.8c-3.1-1.2-5.9-3-8.2-5.3c-2.4-2.4-4.2-5.3-5.6-8.8
			S58.6,262.5,58.6,257.9z M66.5,257.9c0,3.3,0.4,6.2,1.2,8.9c0.8,2.7,2,4.9,3.5,6.8s3.4,3.3,5.6,4.3s4.7,1.5,7.4,1.5
			c2.7,0,5.2-0.5,7.4-1.5c2.2-1,4-2.4,5.6-4.3c1.5-1.9,2.7-4.1,3.5-6.8c0.8-2.7,1.2-5.6,1.2-8.9c0-3.3-0.4-6.2-1.2-8.9
			c-0.8-2.7-2-4.9-3.5-6.8c-1.5-1.9-3.4-3.3-5.6-4.3s-4.6-1.5-7.4-1.5c-2.7,0-5.2,0.5-7.4,1.5c-2.2,1-4.1,2.4-5.6,4.3
			c-1.5,1.9-2.7,4.1-3.5,6.8C66.9,251.7,66.5,254.7,66.5,257.9z"/>
		<path class="st0" d="M165.4,257.9c0,4.7-0.7,8.7-2.2,12.2c-1.5,3.4-3.5,6.3-6.1,8.5c-2.6,2.3-5.8,3.9-9.5,5s-7.7,1.7-12.1,1.7
			c-2.2,0-4.6-0.1-7.2-0.3c-2.6-0.2-5-0.5-7.1-1v-52.2c2.1-0.5,4.5-0.9,7.1-1c2.6-0.2,5-0.3,7.2-0.3c4.4,0,8.4,0.6,12.1,1.7
			c3.7,1.1,6.8,2.8,9.5,5c2.6,2.3,4.7,5.1,6.1,8.5C164.7,249.2,165.4,253.3,165.4,257.9z M136.1,278.7c7.1,0,12.5-1.8,16-5.5
			s5.3-8.8,5.3-15.3c0-6.6-1.8-11.7-5.3-15.3s-8.9-5.5-16-5.5c-2.1,0-3.8,0-4.9,0.1c-1.2,0.1-2,0.1-2.4,0.2v41.2
			c0.5,0.1,1.3,0.1,2.4,0.2C132.3,278.7,134,278.7,136.1,278.7z"/>
		<path class="st0" d="M176.6,284.9v-53.8h32.9v6.4h-25.3v16h22.5v6.3h-22.5v18.6h11.6l-4.4,6.4h-14.8V284.9z"/>
	</g>
	<g>
		<path class="st0" d="M269.3,279.2c-1.4-3.5-3.5-6.3-6.2-8.5s-5.9-3.9-9.7-4.9c-2.3-0.6-4.8-1.1-7.4-1.3L226,285l-1.7-1.8V318
			c2.8,0.6,5.6,1,8.5,1.1c2.9,0.2,5.4,0.3,7.6,0.3c4.8,0,9.1-0.6,12.9-1.7c3.8-1.1,7.1-2.9,9.8-5.1c2.7-2.3,4.7-5.1,6.2-8.6
			c1.4-3.5,2.2-7.5,2.2-12.2C271.4,286.8,270.7,282.7,269.3,279.2z M254.5,304.4c-2.9,3.1-7.4,4.6-13.5,4.6c-1,0-1.9,0-2.7,0
			c-0.7,0-1.4-0.1-2-0.1v-34c0.8-0.1,1.6-0.2,2.5-0.2s1.7,0,2.6,0c6.1,0,10.5,1.4,13.3,4.3c2.8,2.9,4.2,7.2,4.2,12.8
			C258.9,297.1,257.5,301.3,254.5,304.4z"/>
		<path class="st0" d="M281.5,318.6v-53.8h36.3V275h-24.2v10.6h21.5v9.9h-21.5v13h26v10.2h-38.1V318.6z"/>
		<path class="st0" d="M345.5,318.6c-2.1-4.5-4.3-9.2-6.3-14.1c-2.1-4.9-4.1-9.7-5.9-14.4c-1.9-4.8-3.6-9.3-5.2-13.7
			c-1.6-4.4-2.9-8.2-4.1-11.7h13.4c1,3.1,2.1,6.5,3.4,10.1c1.2,3.6,2.5,7.2,3.8,10.7c1.3,3.6,2.5,7,3.7,10.3s2.3,6.1,3.4,8.5
			c1-2.4,2.1-5.2,3.3-8.4c1.2-3.3,2.4-6.7,3.7-10.3c1.3-3.6,2.5-7.1,3.8-10.7c1.2-3.6,2.4-7,3.4-10.1h12.9
			c-1.2,3.4-2.6,7.3-4.2,11.7c-1.6,4.3-3.3,8.9-5.1,13.7c-1.9,4.8-3.8,9.6-5.9,14.4c-2.1,4.9-4.2,9.6-6.3,14.1h-11.8V318.6z"/>
		<path class="st0" d="M385.5,264.8h12.1v53.8h-12.1V264.8z"/>
		<path class="st0" d="M446,308.2v10.4h-36v-53.8h12.1v43.4H446z"/>
		<path class="st0" d="M469.8,309.4c1.7,0,3.1-0.1,4.2-0.4s2-0.7,2.7-1.2s1.1-1.1,1.4-1.7c0.3-0.7,0.4-1.4,0.4-2.3
			c0-1.8-0.8-3.2-2.5-4.4c-1.7-1.2-4.5-2.4-8.5-3.8c-1.8-0.6-3.5-1.3-5.3-2.1c-1.8-0.8-3.3-1.8-4.7-3c-1.4-1.2-2.5-2.7-3.4-4.4
			c-0.9-1.7-1.3-3.8-1.3-6.3s0.5-4.7,1.4-6.7s2.3-3.7,4-5.1s3.8-2.5,6.2-3.2c2.4-0.8,5.2-1.1,8.2-1.1c3.6,0,6.8,0.4,9.4,1.2
			c2.6,0.8,4.8,1.6,6.5,2.6l-3.5,9.6c-1.5-0.8-3.2-1.5-5-2.1s-4.1-0.9-6.6-0.9c-2.9,0-5,0.4-6.3,1.2c-1.3,0.8-1.9,2-1.9,3.7
			c0,1,0.2,1.8,0.7,2.5s1.1,1.3,2,1.8s1.8,1,3,1.5c1.1,0.4,2.3,0.9,3.7,1.4c2.8,1,5.2,2.1,7.3,3.1c2.1,1,3.8,2.2,5.2,3.5
			c1.4,1.3,2.4,2.9,3.1,4.7c0.7,1.8,1,4,1,6.6c0,5-1.8,8.9-5.3,11.7c-3.5,2.8-8.8,4.2-15.9,4.2c-2.4,0-4.5-0.1-6.4-0.4
			s-3.6-0.6-5.1-1s-2.7-0.9-3.8-1.3c-1.1-0.5-2-0.9-2.7-1.3l3.4-9.6c1.6,0.9,3.6,1.7,5.9,2.4C463.5,309.1,466.4,309.4,469.8,309.4z"
			/>
	</g>
	<g>
		<g>
			<polygon class="st0" points="143.2,345.6 141.1,343.6 213.8,270.8 225.8,282.8 275.7,232.9 277.8,235 225.8,286.9 213.8,275 			
				"/>
		</g>
		<g>
			<polygon class="st0" points="296.2,255.5 282.4,241.6 274.5,249.6 272.4,247.5 282.4,237.5 296.2,251.3 328.6,219 293.3,242.1 
				279.8,228.7 309.8,198.7 315,207.5 327.2,178 297.6,190.2 306.4,195.3 297.4,204.4 295.3,202.3 301.7,195.9 291,189.7 
				332.6,172.6 315.4,214.1 309.2,203.4 284,228.7 293.7,238.3 350.7,201 			"/>
		</g>
		<g>
			<polygon class="st0" points="256.4,245.3 254.3,243.2 269.1,228.4 249.7,208.9 304.1,154.5 266.8,211.5 276.5,221.2 284.4,213.3 
				286.4,215.3 276.5,225.3 263.1,211.9 286.2,176.5 253.8,208.9 273.3,228.4 			"/>
		</g>
		<g>
			<polygon class="st0" points="156.1,321.7 154,319.6 213.9,259.7 225.9,271.7 240,257.5 242.1,259.6 225.9,275.8 213.9,263.8 			
				"/>
		</g>
		<g>
			<circle class="st0" cx="155.2" cy="320.5" r="4"/>
		</g>
		<g>
			<path class="st0" d="M145.2,347.2c-1.6,1.6-4.1,1.6-5.6,0c-1.6-1.6-1.6-4.1,0-5.6c1.6-1.6,4.1-1.6,5.6,0
				C146.8,343.1,146.8,345.6,145.2,347.2z"/>
		</g>
		<g>
			<path class="st0" d="M257.8,247.3c-1.6,1.6-4.1,1.6-5.6,0c-1.6-1.6-1.6-4.1,0-5.6c1.6-1.6,4.1-1.6,5.6,0
				C259.4,243.2,259.4,245.7,257.8,247.3z"/>
		</g>
		<g>
			<path class="st0" d="M278.3,238c-1.6,1.6-4.1,1.6-5.6,0c-1.6-1.6-1.6-4.1,0-5.6c1.6-1.6,4.1-1.6,5.6,0
				C279.9,233.9,279.9,236.4,278.3,238z"/>
		</g>
		<g>
			<path class="st0" d="M297.7,207.4c-1.6,1.6-4.1,1.6-5.6,0c-1.6-1.6-1.6-4.1,0-5.6c1.6-1.6,4.1-1.6,5.6,0
				C299.3,203.3,299.3,205.9,297.7,207.4z"/>
		</g>
		<g>
			<path class="st0" d="M288.1,217.2c-1.6,1.6-4.1,1.6-5.6,0c-1.6-1.6-1.6-4.1,0-5.6c1.6-1.6,4.1-1.6,5.6,0
				C289.7,213.1,289.7,215.6,288.1,217.2z"/>
		</g>
		<g>
			<path class="st0" d="M275.8,251.8c-1.6,1.6-4.1,1.6-5.6,0c-1.6-1.6-1.6-4.1,0-5.6c1.6-1.6,4.1-1.6,5.6,0
				C277.3,247.7,277.3,250.3,275.8,251.8z"/>
		</g>
		<g>
			<path class="st0" d="M243.8,261.3c-1.6,1.6-4.1,1.6-5.6,0c-1.6-1.6-1.6-4.1,0-5.6c1.6-1.6,4.1-1.6,5.6,0
				C245.4,257.2,245.4,259.7,243.8,261.3z"/>
		</g>
	</g>
</g>
</svg>
