<?xml version="1.0" encoding="utf-8"?>
<!-- Generator: Adobe Illustrator 23.0.3, SVG Export Plug-In . SVG Version: 6.00 Build 0)  -->
<svg version="1.1" id="uikit_placeholder" xmlns="http://www.w3.org/2000/svg" xmlns:xlink="http://www.w3.org/1999/xlink" x="0px"
	 y="0px" viewBox="0 0 500 500" style="enable-background:new 0 0 500 500;" xml:space="preserve">
<style type="text/css">
	.st0{fill:#181616;}
	.st1{fill:#262424;}
	.st2{fill:#222020;}
	.st3{fill:#242222;}
	.st4{fill:#2F2D2D;}
</style>
<path class="st0" d="M293,359c14.5-1.8,27.7-4.2,40.5-8.4c38.4-12.8,59-40.1,65-79.3c1.9-12.2,2.7-24.5,1.6-36.9
	c-1.7-19-8.7-35.8-21-50.3c-2-2.4-2.5-4.4-1.6-7.4c5.8-18.6,3.9-36.9-2.5-55c-1-2.9-2.8-3.6-5.5-3.5c-11.5,0.1-22,3.9-32.2,8.5
	c-8.7,3.9-17,8.6-24.9,13.9c-2.3,1.6-4.4,2-7.2,1.2c-37-9.3-73.9-9.3-110.9,0c-2.9,0.7-4.9,0.1-7.2-1.4
	c-15.5-9.9-31.4-18.7-49.9-21.8c-0.7-0.1-1.5-0.3-2.2-0.4c-8.7-1-9.1-0.8-11.8,7.7c-5.5,17.2-6.3,34.5-0.7,51.8c0.6,2,0.5,3.4-0.9,5
	c-21.6,24.6-25.3,53.6-21,84.6c1.5,10.6,3.8,20.9,7.9,30.8c12.5,30.9,36.9,47.3,68,55.5c9.6,2.5,19.3,4.1,30,5.4
	c-8.3,8.7-12.6,18.5-14.3,29.3c-0.3,2.2-1.7,2.7-3.3,3.3c-25.4,9.7-50,5.9-65.6-20.1c-7.4-12.3-17.7-21.1-32.2-24.2
	c-3.9-0.8-7.8-0.8-11.6,0.6c-3.6,1.3-4.3,3.6-1.9,6.4c1.8,2.1,3.9,4.2,6.2,5.6c12.8,7.7,20.9,19.1,26.3,32.5
	c8.7,21.4,25.6,30.7,47.4,32.9c9.9,1,19.9,0.4,29.5-1.8c3.5-0.8,4,0.4,4,3.5c-0.1,12-0.5,24,0.3,35.9c1,14.6-10,17.3-19.7,13.8
	c-30.1-10.8-57.4-26.3-80.8-48c-54.2-50.2-80.8-112.5-76.8-186.2C19.9,136.6,95.6,49.5,199.6,27c111-24.1,223.7,33.5,268,137.6
	c53.1,125-10.8,267.7-140.6,312.6c-11.4,3.9-18.4-1.1-18.4-13c0-19.6,0.1-39.3,0.2-58.9C308.9,388.4,306,372.5,293,359z"/>
<path class="st1" d="M166.7,400.4c2.4,0.2,5,0.7,5,3.5c-0.1,3-2.8,3.7-5.4,3.6c-2.3-0.1-4.7-0.8-4.6-3.7
	C161.9,400.8,164.5,400.7,166.7,400.4z"/>
<path class="st2" d="M147.9,404.6c-2.4-0.3-5-1-5.2-4.3c-0.2-2.4,1.9-2.9,3.9-2.9c2.9,0,5.4,1.1,5.8,4
	C152.8,404,150.4,404.6,147.9,404.6z"/>
<path class="st1" d="M131.9,395.6c-2.7-0.5-4.7-2.1-5.1-5.3c-0.2-2,0.8-3.2,2.9-3.1c3.5,0.2,5.4,2.3,5.8,5.5
	C135.7,394.8,134.3,395.8,131.9,395.6z"/>
<path class="st3" d="M120,382.1c-2.6-0.6-4.1-2.4-4.3-5.3c-0.1-1.7,0.6-3,2.5-2.9c3.1,0.1,4.5,2.3,4.9,5
	C123.4,380.7,122.5,382.2,120,382.1z"/>
<path class="st4" d="M109.2,361.8c2.3,0.9,4.2,2.2,4.2,5c0,1.6-1.3,2.3-2.7,2.1c-2.4-0.4-4-1.8-4.2-4.4
	C106.5,362.8,107.3,361.8,109.2,361.8z"/>
<path class="st4" d="M99.3,353.7c2,0.5,3.9,1.1,4,3.4c0,1.6-1.5,2.1-2.9,1.8c-1.7-0.3-3.4-1-3.6-3C96.7,354.2,98.1,353.9,99.3,353.7
	z"/>
</svg>
