<?xml version="1.0" encoding="utf-8"?>
<!-- Generator: Adobe Illustrator 23.0.3, SVG Export Plug-In . SVG Version: 6.00 Build 0)  -->
<svg version="1.1" id="uikit_placeholder" xmlns="http://www.w3.org/2000/svg" xmlns:xlink="http://www.w3.org/1999/xlink" x="0px"
	 y="0px" viewBox="0 0 500 500" style="enable-background:new 0 0 500 500;" xml:space="preserve">
<style type="text/css">
	.st0{fill:#00B760;}
</style>
<path class="st0" d="M462.5,127.1C448.6,103.2,277.8,4.2,250,4.2c-27.8,0-198.6,98.7-212.5,122.9c-13.8,24.2-13.9,221.6,0,245.8
	C51.4,397.1,222.2,495.8,250,495.8S448.6,397,462.5,372.9C476.4,348.8,476.4,151.1,462.5,127.1z M307.6,401.9
	c-3.8,0-39.3-34.3-36.5-37.1c0.8-0.8,6-1.4,16.8-1.8v-0.9c0-21.6,0.5-61.7,0.9-81.9c0-1.9-0.4-3.3-0.4-5.6c-25.8,0-51,0-76.7,0
	c0,9.3-0.2,19.3,0,29.1c0.3,13,0.6,27.9,1.3,40.8c0.2,4.4-1.5,5.7-5.5,5.7c-9.7,0-19.5-0.1-29.2-0.1c-3.9,0-5.6-1.5-5.5-5.9
	c0.7-26.7,1.5-55.6,1.5-82.4c0-32-0.9-89.8-1.6-121.8v-3c-9.3-0.3-15.7-0.9-16.6-1.8c-2.8-2.8,33.2-37.1,37-37.1
	c3.8,0,39.5,34.4,36.7,37.1c-0.8,0.8-7.6,1.4-16.1,1.8v3c-2.3,24.7-2,76.4-2.5,101.2c26.1,0,51.3,0,77.1,0c0-10.1,0.1-19.4,0-28.7
	c-0.3-16.4-0.6-35.2-1.1-51.6c-0.1-3.3,0.9-5,4-5c10.6-0.1,21.3-0.1,31.9-0.1c3.3,0,4.4,1.7,4.3,5.2c-0.7,36.8-1.8,75.8-1.9,112.7
	c-0.1,22.2,0.5,64.4,1.2,87.9v1.3c8.5,0.3,16.1,0.9,17,1.8C346.4,367.6,311.4,401.9,307.6,401.9z"/>
</svg>
