<?xml version="1.0" encoding="utf-8"?>
<!-- Generator: Adobe Illustrator 23.0.3, SVG Export Plug-In . SVG Version: 6.00 Build 0)  -->
<svg version="1.1" id="uikit_placeholder" xmlns="http://www.w3.org/2000/svg" xmlns:xlink="http://www.w3.org/1999/xlink" x="0px"
	 y="0px" viewBox="0 0 500 500" style="enable-background:new 0 0 500 500;" xml:space="preserve">
<style type="text/css">
	.st0{fill:#777777;}
	.st1{fill:#FE0000;}
	.st2{fill:#FEFBFB;}
</style>
<g>
	<path class="st0" d="M182.3,196.8v106.5h135.4V196.8H182.3L182.3,196.8z M306.8,291.7H193.9v-83.4h112.9V291.7L306.8,291.7z"/>
	<polygon class="st0" points="199.7,282.9 223.1,258.3 231.8,262.1 259.5,232.7 270.4,245.7 275.3,242.7 301.8,282.9 	"/>
	<circle class="st0" cx="226.7" cy="229.4" r="10.2"/>
</g>
<g>
	<path class="st1" d="M242.2,421.4c-43,0.3-92.4-2.3-141.7-7c-46-4.4-81.8-40.7-85.1-86.8c-3.4-47.5-3.3-95.2,0.2-142.8
		c2.9-40.3,37.7-77.5,78.3-82.5c52.3-6.4,104.8-8.1,157.5-8.1c48.4,0,96.7,2.5,144.9,7c45.9,4.3,82.1,40.8,85.3,86.6
		c3.4,47.7,3.3,95.6-0.2,143.3c-3,40.4-37.9,77.3-78.5,82.3C351.6,419.6,300.2,421.4,242.2,421.4z M319.5,258.1
		c-0.5-1.8-1.9-2-2.9-2.7c-35.7-21.8-71.4-43.6-107.1-65.4c-1.2-0.7-2.5-2.4-3.8-1.7c-1.8,0.9-0.8,3-0.8,4.5c0,43.2,0,86.4,0,129.6
		c0,1.6-0.9,3.7,0.7,4.6c1.6,0.8,2.9-1,4.3-1.9c35.4-21.6,70.8-43.2,106.2-64.8C317.2,259.7,318.4,258.9,319.5,258.1z"/>
	<path class="st2" d="M319.5,258.1c-1.1,0.7-2.3,1.6-3.5,2.3c-35.4,21.6-70.8,43.2-106.2,64.8c-1.3,0.8-2.7,2.7-4.3,1.9
		c-1.7-0.9-0.7-3-0.7-4.6c0-43.2,0-86.4,0-129.6c0-1.5-0.9-3.7,0.8-4.5c1.3-0.7,2.6,1,3.8,1.7c35.7,21.8,71.4,43.6,107.1,65.4
		C317.6,256.1,319,256.3,319.5,258.1z"/>
</g>
</svg>
